<svg width="104" height="104" viewBox="0 0 104 104" fill="none" xmlns="http://www.w3.org/2000/svg">
<path d="M84.5002 32.4953L78.0436 38.9519L65.0436 25.9519L71.5002 19.4953C73.3202 17.6753 75.6602 16.8086 78.0002 16.8086C80.3402 16.8086 82.6802 17.6753 84.5002 19.4953C88.0969 23.0919 88.0969 28.8986 84.5002 32.4953ZM75.0102 42.0329L28.1669 88.8329C24.5702 92.4296 18.7636 92.4296 15.1669 88.8329C11.5702 85.2363 11.5702 79.4296 15.1669 75.8329L62.0102 29.0329L75.0102 42.0329ZM43.1169 15.1663L44.8936 9.14292C45.0669 8.57958 44.8936 7.97292 44.5036 7.53959C44.1136 7.10625 43.4202 6.93292 42.8569 7.10625L36.8336 8.88292L30.8102 7.10625C30.2469 6.93292 29.6402 7.10625 29.2069 7.49625C28.7736 7.92959 28.6436 8.53625 28.8169 9.09958L30.5502 15.1663L28.7736 21.1896C28.6002 21.7529 28.7736 22.3596 29.1636 22.7929C29.5969 23.2263 30.2036 23.3563 30.7669 23.1829L36.8336 21.4496L42.8569 23.2263C43.0302 23.2696 43.1602 23.3129 43.3336 23.3129C43.7669 23.3129 44.1569 23.1396 44.5036 22.8363C44.9369 22.4029 45.0669 21.7963 44.8936 21.2329L43.1169 15.1663ZM25.7836 41.1663L27.5602 35.1429C27.7336 34.5796 27.5602 33.9729 27.1702 33.5396C26.7369 33.1063 26.1302 32.9763 25.5669 33.1496L19.5002 34.8829L13.4769 33.1063C12.9136 32.9329 12.3069 33.1063 11.8736 33.4963C11.4402 33.9296 11.3102 34.5363 11.4836 35.0996L13.2169 41.1663L11.4402 47.1896C11.2669 47.7529 11.4402 48.3596 11.8302 48.7929C12.2636 49.2263 12.8702 49.3563 13.4336 49.1829L19.4569 47.4063L25.4802 49.1829C25.6102 49.2263 25.7836 49.2263 25.9569 49.2263C26.3902 49.2263 26.7802 49.0529 27.1269 48.7496C27.5602 48.3163 27.6902 47.7096 27.5169 47.1463L25.7836 41.1663ZM90.7836 62.8329L92.5602 56.8096C92.7336 56.2463 92.5602 55.6396 92.1702 55.2063C91.7369 54.7729 91.1302 54.6429 90.5669 54.8163L84.5436 56.5929L78.5202 54.8163C77.9569 54.6429 77.3502 54.8163 76.9169 55.2063C76.4836 55.6396 76.3536 56.2463 76.5269 56.8096L78.3036 62.8329L76.5269 68.8563C76.3536 69.4196 76.5269 70.0263 76.9169 70.4596C77.3502 70.8929 77.9569 71.0229 78.5202 70.8496L84.5436 69.0729L90.5669 70.8496C90.6969 70.8929 90.8702 70.8929 91.0436 70.8929C91.4769 70.8929 91.8669 70.7196 92.2136 70.4163C92.6469 69.9829 92.7769 69.3763 92.6036 68.8129L90.7836 62.8329Z" fill="url(#paint0_linear_3084_1272)"/>
<defs>
<linearGradient id="paint0_linear_3084_1272" x1="52.0255" y1="7.03906" x2="52.0255" y2="91.5304" gradientUnits="userSpaceOnUse">
<stop stop-color="#003670"/>
<stop offset="1" stop-color="#0DB5E4"/>
</linearGradient>
</defs>
</svg>
