<svg width="104" height="104" viewBox="0 0 104 104" fill="none" xmlns="http://www.w3.org/2000/svg">
<g clip-path="url(#clip0_3084_1324)">
<path d="M9.14062 36.7636H3.04688C1.36277 36.7636 0 38.1263 0 39.8104C0 41.4945 1.36277 42.8573 3.04688 42.8573H9.14062C10.8247 42.8573 12.1875 41.4945 12.1875 39.8104C12.1875 38.1263 10.8247 36.7636 9.14062 36.7636ZM10.6054 21.5292L6.29688 17.2209C5.10677 16.0308 3.1785 16.0308 1.98839 17.2209C0.798281 18.411 0.798281 20.3393 1.98839 21.5294L6.29688 25.8377C7.48719 27.028 9.41505 27.028 10.6054 25.8377C11.7955 24.6476 11.7955 22.7193 10.6054 21.5292ZM10.6054 53.7834C9.41525 52.5933 7.48698 52.5931 6.29688 53.7834L1.98839 58.0919C0.798281 59.282 0.798281 61.2103 1.98839 62.4004C3.1787 63.5907 5.10656 63.5907 6.29688 62.4004L10.6054 58.0919C11.7955 56.9018 11.7955 54.9735 10.6054 53.7834ZM100.953 36.7636H94.8594C93.1753 36.7636 91.8125 38.1263 91.8125 39.8104C91.8125 41.4945 93.1753 42.8573 94.8594 42.8573H100.953C102.637 42.8573 104 41.4945 104 39.8104C104 38.1263 102.637 36.7636 100.953 36.7636ZM102.012 17.2207C100.822 16.0306 98.8932 16.0306 97.7031 17.2207L93.3946 21.5292C92.2045 22.7193 92.2045 24.6476 93.3946 25.8377C94.585 27.028 96.5128 27.028 97.7031 25.8377L102.012 21.5292C103.202 20.3391 103.202 18.4108 102.012 17.2207ZM102.012 58.0917L97.7031 53.7834C96.513 52.5933 94.5847 52.5933 93.3946 53.7834C92.2045 54.9735 92.2045 56.9018 93.3946 58.0919L97.7031 62.4002C98.8934 63.5905 100.821 63.5905 102.012 62.4002C103.202 61.2101 103.202 59.2818 102.012 58.0917ZM75.0449 8.17452C66.4517 1.18824 55.1779 -1.50154 44.1478 0.81916C30.3952 3.69054 19.1955 15.0576 16.2797 28.8043C13.8011 40.5008 16.8598 52.2421 24.6675 61.0197C27.8241 64.5718 29.7497 68.8589 30.3812 73.3263H39.8125V45.9044C39.8125 44.7244 48.7467 27.3156 49.2745 26.2604C50.31 24.1954 53.69 24.1954 54.7255 26.2604C55.2782 27.3658 64.1875 44.7835 64.1875 45.9044V73.3263H73.6294C74.2824 68.8803 76.2645 64.5248 79.511 60.8205C85.3476 54.1656 88.5647 45.6152 88.5625 36.7636C88.5625 25.7038 83.6351 15.1549 75.0449 8.17452Z" fill="url(#paint0_linear_3084_1324)"/>
<path d="M52 51.731C49.9399 51.731 47.8879 51.372 45.9062 50.7167V73.327H58.0938V50.7167C56.1121 51.372 54.0601 51.731 52 51.731ZM30.6719 79.4207V82.4676C30.6719 87.508 34.7722 91.6082 39.8125 91.6082H64.1875C69.2278 91.6082 73.3281 87.508 73.3281 82.4676V79.4207H30.6719ZM52 34.4375L46.9647 44.508C50.2188 45.8411 53.7812 45.8411 57.0353 44.508L52 34.4375ZM37.3269 97.702C38.5889 101.241 41.9392 103.999 45.9062 103.999H58.0938C62.0608 103.999 65.4111 101.241 66.6731 97.702H37.3269Z" fill="url(#paint1_linear_3084_1324)"/>
</g>
<defs>
<linearGradient id="paint0_linear_3084_1324" x1="52" y1="0.00390625" x2="52" y2="73.3263" gradientUnits="userSpaceOnUse">
<stop stop-color="#003670"/>
<stop offset="1" stop-color="#0DB5E4"/>
</linearGradient>
<linearGradient id="paint1_linear_3084_1324" x1="52" y1="34.4375" x2="52" y2="103.999" gradientUnits="userSpaceOnUse">
<stop stop-color="#003670"/>
<stop offset="1" stop-color="#0DB5E4"/>
</linearGradient>
<clipPath id="clip0_3084_1324">
<rect width="104" height="104" fill="white"/>
</clipPath>
</defs>
</svg>
