<svg width="104" height="104" viewBox="0 0 104 104" fill="none" xmlns="http://www.w3.org/2000/svg">
<g clip-path="url(#clip0_3084_1269)">
<path d="M89.2043 41.0908L72.502 57.795C67.0644 63.2321 59.6898 66.2867 52.0002 66.2866C59.6527 66.2866 65.8669 60.0726 65.8669 52.4199C65.1789 34.0474 38.8186 34.0523 38.1336 52.4201C38.1336 60.0726 44.3476 66.2866 52.0004 66.2866C44.3108 66.2867 36.9361 63.2321 31.4985 57.795L14.7958 41.0908C11.4105 37.7073 5.92287 37.7073 2.53759 41.0908C-0.845863 44.476 -0.845863 49.9637 2.53759 53.349L17.8047 68.6144C22.0515 72.8611 25.4204 77.9028 27.7188 83.4515C30.0172 89.0002 31.2001 94.9472 31.2002 100.953C31.2002 102.636 32.5643 104 34.247 104H69.7533C71.436 104 72.8002 102.636 72.8002 100.953C72.8002 94.9473 73.9831 89.0002 76.2815 83.4515C78.5799 77.9028 81.9486 72.8612 86.1954 68.6144L101.463 53.349C104.846 49.9637 104.846 44.476 101.463 41.0908C98.0774 37.7073 92.5896 37.7073 89.2043 41.0908ZM32.4189 19.5813C30.7362 19.5813 29.372 20.9454 29.372 22.6281C29.372 26.143 32.4693 27.6916 34.32 28.6169C34.806 28.8598 35.5732 29.2435 35.9196 29.5094C36.4589 33.2713 41.8837 32.9804 41.993 29.1551C41.81 24.6807 37.9407 23.9084 35.4457 22.2741C35.27 20.758 33.982 19.5813 32.4189 19.5813ZM89.8001 9.03561C90.2862 9.27855 91.0536 9.66225 91.3997 9.92814C91.939 13.69 97.3639 13.3989 97.4729 9.57389C97.2899 5.09945 93.4206 4.32717 90.9256 2.69283C90.7503 1.17691 89.4621 0 87.8991 0C86.2164 0 84.8522 1.36419 84.8522 3.04688C84.8522 6.56175 87.9494 8.11038 89.8001 9.03561ZM3.04703 25.675C4.72972 25.675 6.0939 24.3108 6.0939 22.6281C6.0939 22.0634 8.18284 21.0192 9.30511 20.4579C12.0818 19.0696 15.8845 17.1683 15.8845 12.8375C15.8845 11.1548 14.5203 9.79063 12.8377 9.79063C11.155 9.79063 9.79078 11.1548 9.79078 12.8375C9.79078 13.402 7.70204 14.4465 6.57978 15.0075C3.80306 16.3958 0.000152357 18.2973 0.000152357 22.6281C0.000152357 24.3108 1.36434 25.675 3.04703 25.675ZM68.3178 32.202C70.0005 32.202 71.3647 30.8378 71.3647 29.1551C71.3647 28.5905 73.4534 27.5462 74.5759 26.985C77.3526 25.5966 81.1555 23.6951 81.1555 19.3645C81.1555 17.6818 79.7913 16.3176 78.1086 16.3176C76.4259 16.3176 75.0618 17.6818 75.0618 19.3645C75.0618 19.929 72.973 20.9735 71.8508 21.5345C69.0738 22.9229 65.2709 24.8243 65.2709 29.1551C65.2709 30.8378 66.6351 32.202 68.3178 32.202ZM29.4244 7.40391L29.6121 7.49816C30.075 8.59077 31.1575 9.35736 32.4187 9.35736C34.1014 9.35736 35.4656 7.99317 35.4656 6.31048C35.4656 3.61136 33.1418 2.44969 32.1496 1.95345C32.0931 1.92522 32.0277 1.89252 31.9619 1.8592C31.499 0.766391 30.4167 0 29.1553 0C27.4726 0 26.1084 1.36419 26.1084 3.04688C26.1084 5.7458 28.4322 6.90767 29.4244 7.40391ZM94.643 29.1551C94.6944 31.9956 97.0062 33.0149 98.1467 33.6066C98.6096 34.6992 99.6919 35.4656 100.953 35.4656C102.636 35.4656 104 34.1014 104 32.4188C104 29.7198 101.677 28.558 100.684 28.0617C100.628 28.0335 100.562 28.001 100.496 27.9675C99.1985 24.9572 94.6794 25.8296 94.643 29.1551ZM58.5274 12.6208C59.7888 12.6208 60.871 11.8544 61.334 10.7618C61.4 10.7282 61.4652 10.6957 61.5216 10.6675C62.5141 10.1715 64.8377 9.00941 64.8377 6.31048C64.8377 4.6278 63.4735 3.26361 61.7908 3.26361C60.5294 3.26361 59.4471 4.03 58.9842 5.12261C58.9182 5.15613 58.853 5.18863 58.7965 5.21686C57.8041 5.71289 55.4805 6.87497 55.4805 9.57389C55.4805 11.2566 56.8447 12.6208 58.5274 12.6208Z" fill="url(#paint0_linear_3084_1269)"/>
</g>
<defs>
<linearGradient id="paint0_linear_3084_1269" x1="52.0002" y1="0" x2="52.0002" y2="104" gradientUnits="userSpaceOnUse">
<stop stop-color="#003670"/>
<stop offset="1" stop-color="#0DB5E4"/>
</linearGradient>
<clipPath id="clip0_3084_1269">
<rect width="104" height="104" fill="white"/>
</clipPath>
</defs>
</svg>
