<svg width="104" height="104" viewBox="0 0 104 104" fill="none" xmlns="http://www.w3.org/2000/svg">
<g clip-path="url(#clip0_3084_1335)">
<path d="M62.3969 19.9316H41.6002C41.1209 19.9316 40.7324 20.3201 40.7324 20.7994V27.7316C40.7324 28.2109 41.1209 28.5994 41.6002 28.5994H62.3969C62.8762 28.5994 63.2647 28.2109 63.2647 27.7316V20.7994C63.2647 20.3201 62.8762 19.9316 62.3969 19.9316Z" fill="url(#paint0_linear_3084_1335)"/>
<path d="M52 84.0677C56.2998 84.0677 59.8 80.5675 59.8 76.2677V47.8725L44.2 63.4725V76.2645C44.2 80.5642 47.7002 84.0645 52 84.0645V84.0677ZM39 61.3242V33.1922C37.9652 32.7028 37.0902 31.9301 36.4764 30.9638C35.8627 29.9975 35.5353 28.877 35.5322 27.7323V20.8C35.5322 17.4525 38.2557 14.7323 41.6 14.7323H62.4C65.7475 14.7323 68.4678 17.4557 68.4678 20.8V27.7323C68.4678 30.1437 67.041 32.214 65 33.1922V35.3243L86.8433 13.481C77.6165 5.1285 65.4258 0 52 0C23.283 0 0 23.2798 0 52C0 65.4225 5.1285 77.6165 13.481 86.8433L39 61.3242Z" fill="url(#paint1_linear_3084_1335)"/>
<path d="M90.519 17.1562L65 42.672V76.264C65 83.4303 59.1695 89.264 52 89.264C44.8305 89.264 39 83.4303 39 76.264V68.672L17.1567 90.5153C26.3835 98.871 38.5742 104 52 104C80.7202 104 104 80.7165 104 51.9995C104 38.577 98.8715 26.3798 90.519 17.1562ZM44.2 33.7995V42.4673H57.8565L59.8 40.5238V33.7995H44.2ZM44.2 47.6673V56.1237L52.6565 47.6673H44.2Z" fill="url(#paint2_linear_3084_1335)"/>
</g>
<defs>
<linearGradient id="paint0_linear_3084_1335" x1="51.9985" y1="19.9316" x2="51.9985" y2="28.5994" gradientUnits="userSpaceOnUse">
<stop stop-color="#003670"/>
<stop offset="1" stop-color="#0DB5E4"/>
</linearGradient>
<linearGradient id="paint1_linear_3084_1335" x1="43.4216" y1="0" x2="43.4216" y2="86.8433" gradientUnits="userSpaceOnUse">
<stop stop-color="#003670"/>
<stop offset="1" stop-color="#0DB5E4"/>
</linearGradient>
<linearGradient id="paint2_linear_3084_1335" x1="60.5784" y1="17.1562" x2="60.5784" y2="104" gradientUnits="userSpaceOnUse">
<stop stop-color="#003670"/>
<stop offset="1" stop-color="#0DB5E4"/>
</linearGradient>
<clipPath id="clip0_3084_1335">
<rect width="104" height="104" fill="white"/>
</clipPath>
</defs>
</svg>
