<svg width="20" height="20" viewBox="0 0 20 20" fill="none" xmlns="http://www.w3.org/2000/svg">
<path fill-rule="evenodd" clip-rule="evenodd" d="M2.5 4.99984C2.5 4.77882 2.5878 4.56686 2.74408 4.41058C2.90036 4.2543 3.11232 4.1665 3.33333 4.1665H16.6667C16.8877 4.1665 17.0996 4.2543 17.2559 4.41058C17.4122 4.56686 17.5 4.77882 17.5 4.99984C17.5 5.22085 17.4122 5.43281 17.2559 5.58909C17.0996 5.74537 16.8877 5.83317 16.6667 5.83317H3.33333C3.11232 5.83317 2.90036 5.74537 2.74408 5.58909C2.5878 5.43281 2.5 5.22085 2.5 4.99984ZM2.5 9.99984C2.5 9.77882 2.5878 9.56686 2.74408 9.41058C2.90036 9.2543 3.11232 9.1665 3.33333 9.1665H11.6667C11.8877 9.1665 12.0996 9.2543 12.2559 9.41058C12.4122 9.56686 12.5 9.77882 12.5 9.99984C12.5 10.2209 12.4122 10.4328 12.2559 10.5891C12.0996 10.7454 11.8877 10.8332 11.6667 10.8332H3.33333C3.11232 10.8332 2.90036 10.7454 2.74408 10.5891C2.5878 10.4328 2.5 10.2209 2.5 9.99984ZM2.5 14.9998C2.5 14.7788 2.5878 14.5669 2.74408 14.4106C2.90036 14.2543 3.11232 14.1665 3.33333 14.1665H7.5C7.72101 14.1665 7.93297 14.2543 8.08926 14.4106C8.24554 14.5669 8.33333 14.7788 8.33333 14.9998C8.33333 15.2209 8.24554 15.4328 8.08926 15.5891C7.93297 15.7454 7.72101 15.8332 7.5 15.8332H3.33333C3.11232 15.8332 2.90036 15.7454 2.74408 15.5891C2.5878 15.4328 2.5 15.2209 2.5 14.9998Z" fill="#2C5789"/>
</svg>
